<?xml version="1.0" encoding="UTF-8" standalone="no"?><!-- Generator: Gravit.io --><svg xmlns="http://www.w3.org/2000/svg" xmlns:xlink="http://www.w3.org/1999/xlink" style="isolation:isolate" viewBox="0 0 397 109" width="397pt" height="109pt"><defs><clipPath id="_clipPath_hf7tOwuG7HbR7y34N3pIYmucQA490UqP"><rect width="397" height="109"/></clipPath></defs><g clip-path="url(#_clipPath_hf7tOwuG7HbR7y34N3pIYmucQA490UqP)"><g><g><clipPath id="_clipPath_CC5PjJXcn3hKwZu4pcsfDSU9XUbUPqJI"><path d=" M 396.002 91.5 L 396.002 17.5 L -0.003 17.5 L -1 91.5 L 397 90.458" fill="rgb(255,255,255)"/></clipPath><g clip-path="url(#_clipPath_CC5PjJXcn3hKwZu4pcsfDSU9XUbUPqJI)"><g><path d=" M 26.351 75.237 L 26.163 75.242 C 25.383 75.279 24.492 75.308 23.55 75.308 C 21.15 75.308 20.171 74.567 20.171 72.756 L 20.171 53.212 L 29.428 53.212 L 29.428 41.133 L 20.171 41.133 L 20.171 24.138 L 6.738 24.138 L 6.738 41.133 L 0.009 41.133 L 0.009 53.212 L 6.738 53.212 L 6.738 77.055 C 6.738 86.51 13.299 87.784 19.72 87.784 C 23.261 87.784 28.982 87.219 29.222 87.198 L 29.804 87.142 L 29.804 78.745 C 29.756 77.532 28.974 75.237 26.351 75.237 Z " fill="rgb(255,255,255)"/><path d=" M 68.246 58.709 C 69.392 54.511 72.807 51.845 77.15 51.845 C 81.414 51.845 84.873 54.629 85.809 58.709 L 68.246 58.709 Z  M 77.149 39.96 C 63.884 39.96 54.259 50.138 54.259 64.163 C 54.259 78.189 63.964 88.369 77.335 88.369 C 87.144 88.369 94.721 83.771 98.673 75.418 L 99.055 74.613 L 85.457 72.14 L 85.224 72.486 C 83.662 74.803 80.782 76.186 77.522 76.186 C 73.017 76.186 69.394 73.082 68.471 68.547 L 100.227 68.547 L 100.227 67.388 C 100.227 47.165 88.303 39.96 77.149 39.96 Z " fill="rgb(255,255,255)"/><path d=" M 129.682 39.96 C 125.009 39.96 120.619 41.842 117.374 45.185 C 117.383 45.045 117.391 44.899 117.397 44.753 C 117.266 41.887 115.056 41.129 113.897 41.132 L 104.271 41.132 L 104.271 87.2 L 117.708 87.2 L 117.708 57.766 C 120.086 54.764 123.069 53.115 126.13 53.115 C 130.291 53.115 132.778 55.859 132.778 60.452 L 132.778 87.202 L 146.215 87.202 L 146.215 57.231 C 146.216 46.737 139.727 39.96 129.682 39.96 Z " fill="rgb(255,255,255)"/><path d=" M 308.532 39.96 C 302.858 39.96 297.933 42.555 294.231 47.48 C 291.574 42.622 286.703 39.96 280.397 39.96 C 275.963 39.96 271.61 41.862 268.416 45.128 C 268.422 44.936 268.417 44.747 268.412 44.566 C 267.974 41.239 265.265 41.132 264.896 41.132 L 264.892 41.132 L 255.262 41.132 L 255.262 87.2 L 268.696 87.2 L 268.696 57.766 C 271.074 54.764 273.994 53.115 276.936 53.115 C 280.983 53.115 283.401 55.788 283.401 60.258 L 283.401 87.202 L 296.833 87.202 L 296.833 57.766 C 299.209 54.764 302.129 53.115 305.076 53.115 C 306.59 53.115 311.538 53.63 311.538 60.258 L 311.538 87.202 L 324.976 87.202 L 324.976 57.231 C 324.973 46.737 318.519 39.96 308.532 39.96 Z " fill="rgb(255,255,255)"/><path d=" M 338.129 17.5 C 333.496 17.5 329.731 21.479 329.731 26.372 C 329.731 31.294 333.418 35.148 338.129 35.148 C 342.891 35.148 346.622 31.294 346.622 26.372 C 346.622 21.479 342.811 17.5 338.129 17.5 Z " fill="rgb(255,255,255)"/><path d=" M 345.426 44.753 C 345.295 41.887 343.084 41.131 341.927 41.133 L 331.988 41.133 L 331.988 87.199 L 345.427 87.199 L 345.426 86.527 C 345.403 72.532 345.378 45.803 345.426 44.753 Z " fill="rgb(255,255,255)"/><path d=" M 373.432 75.77 C 367.308 75.77 363.031 70.999 363.031 64.169 C 363.031 57.281 367.308 52.467 373.432 52.467 C 379.561 52.467 383.838 57.281 383.838 64.169 C 383.838 70.891 379.46 75.77 373.432 75.77 Z  M 395.983 86.529 C 395.961 72.531 395.934 45.803 395.983 44.754 C 395.85 41.888 393.641 41.131 392.482 41.132 L 383.219 41.164 L 383.219 44.709 C 380.186 41.554 376.19 39.96 371.312 39.96 C 359.108 39.96 349.908 50.367 349.908 64.17 C 349.908 77.968 359.108 88.373 371.312 88.373 C 376.23 88.373 380.315 86.685 383.487 83.354 L 383.508 83.942 L 383.543 83.942 C 383.853 86.487 385.844 87.191 386.91 87.2 L 395.985 87.2 L 395.983 86.529 Z " fill="rgb(255,255,255)"/><path d=" M 225.236 75.77 C 219.112 75.77 214.832 71 214.832 64.168 C 214.832 57.28 219.112 52.468 225.236 52.468 C 231.361 52.468 235.638 57.279 235.638 64.168 C 235.638 70.892 231.262 75.77 225.236 75.77 Z  M 247.785 44.754 C 247.658 41.89 245.443 41.131 244.283 41.133 L 235.023 41.162 L 235.023 44.709 C 231.988 41.554 227.993 39.96 223.116 39.96 C 210.913 39.96 201.711 50.367 201.711 64.168 C 201.711 77.97 210.913 88.372 223.116 88.372 C 228.035 88.372 232.118 86.686 235.283 83.354 L 235.309 83.943 L 235.346 83.943 C 235.66 86.486 237.644 87.19 238.708 87.199 L 247.785 87.199 L 247.784 86.528 C 247.764 72.532 247.736 45.802 247.785 44.754 Z " fill="rgb(255,255,255)"/><path d=" M 174.556 75.703 C 168.688 75.703 164.259 70.7 164.259 64.069 C 164.259 57.385 168.59 52.533 174.556 52.533 C 180.521 52.533 184.849 57.386 184.849 64.069 C 184.85 70.7 180.425 75.703 174.556 75.703 Z  M 198.006 27.667 L 198.005 27.462 L 197.993 27.457 C 197.766 24.982 195.921 24.193 194.664 24.091 L 184.572 24.042 L 184.572 38.973 C 184.572 40.972 184.638 43.118 184.693 44.827 C 184.697 45.005 184.705 45.176 184.709 45.341 C 182.284 42.454 177.941 39.863 171.753 39.863 C 159.411 39.863 150.454 50.042 150.454 64.068 C 150.454 77.868 159.654 88.28 171.85 88.28 C 177.536 88.28 182.055 85.721 184.572 82.781 L 184.572 83.409 C 184.572 85.609 185.82 86.955 188.011 87.108 C 188.533 87.134 197.368 87.105 197.369 87.108 L 198.01 87.105 L 198.01 27.88 L 198.011 27.74 L 198.01 27.703 C 198.008 27.692 198.006 27.677 198.006 27.667 Z " fill="rgb(255,255,255)"/><path d=" M 42.373 17.5 C 37.743 17.5 33.974 21.479 33.974 26.372 C 33.974 31.294 37.665 35.148 42.373 35.148 C 47.135 35.148 50.866 31.294 50.866 26.372 C 50.866 21.479 47.055 17.5 42.373 17.5 Z " fill="rgb(255,255,255)"/><path d=" M 49.67 44.753 C 49.54 41.887 47.328 41.131 46.171 41.133 L 36.232 41.133 L 36.232 87.199 L 49.673 87.199 L 49.671 86.527 C 49.649 72.532 49.621 45.803 49.67 44.753 Z " fill="rgb(255,255,255)"/></g></g></g><clipPath id="_clipPath_POmRtlPHdMrpzOWyNMbLcmXeGgRavlJr"><line x1="397" y1="72.015" x2="397" y2="109"/></clipPath><g clip-path="url(#_clipPath_POmRtlPHdMrpzOWyNMbLcmXeGgRavlJr)"><g><path d=" M 334.473 96.728 M 397.012 80.553 L 343.03 80.553 C 335.57 80.553 331.973 81.767 329.358 83.98 C 328.443 84.647 324.015 88.293 319.226 91.744 C 318.374 92.056 318.278 91.445 318.278 91.434 C 318.278 91.434 318.33 88.181 318.285 86.145 C 318.201 82.165 316.218 80.553 310.878 80.553 L 255.905 80.553 L 255.905 90.514 C 255.905 92.473 257.496 94.067 259.455 94.067 C 259.455 94.067 299.335 94.09 301.084 94.06 C 305.927 93.986 305.804 97.339 305.804 97.339 L 305.804 102.162 C 305.804 105.034 308.157 108.992 312.659 108.999 C 317.202 109.004 319.942 106.989 319.942 106.989 C 330.973 99.188 333.843 97.167 334.474 96.727 C 334.474 96.727 334.478 96.72 334.494 96.707 C 338.097 94.017 339.174 94.114 342.176 94.065 L 393.468 94.065 C 395.423 94.065 397.013 92.471 397.013 90.512 L 397.013 90.47 L 397.013 90.464 L 397.013 80.553 L 397.012 80.553 Z " fill="rgb(120,0,200)"/><path d=" M 26.42 55.397 L 26.231 55.401 C 25.45 55.437 24.556 55.465 23.612 55.465 C 21.206 55.465 20.225 54.754 20.225 53.016 L 20.225 34.264 L 29.504 34.264 L 29.504 22.675 L 20.225 22.675 L 20.225 6.369 L 6.758 6.369 L 6.758 22.675 L 0.012 22.675 L 0.012 34.264 L 6.758 34.264 L 6.758 57.141 C 6.758 66.212 13.335 67.434 19.772 67.434 C 23.322 67.434 29.057 66.892 29.298 66.872 L 29.881 66.819 L 29.881 58.762 C 29.833 57.598 29.049 55.397 26.42 55.397 Z " fill="rgb(255,255,255)"/><path d=" M 68.42 39.538 C 69.569 35.51 72.993 32.953 77.346 32.953 C 81.621 32.953 85.089 35.624 86.028 39.538 L 68.42 39.538 Z  M 77.345 21.55 C 64.047 21.55 54.398 31.315 54.398 44.771 C 54.398 58.228 64.127 67.996 77.532 67.996 C 87.365 67.996 94.962 63.584 98.923 55.57 L 99.307 54.798 L 85.674 52.425 L 85.44 52.757 C 83.875 54.98 80.988 56.307 77.719 56.307 C 73.203 56.307 69.571 53.328 68.646 48.977 L 100.481 48.977 L 100.481 47.865 C 100.481 28.462 88.527 21.55 77.345 21.55 Z " fill="rgb(255,255,255)"/><path d=" M 130.01 21.55 C 125.325 21.55 120.925 23.355 117.671 26.563 C 117.68 26.429 117.688 26.289 117.694 26.149 C 117.563 23.398 115.348 22.671 114.186 22.674 L 104.535 22.674 L 104.535 66.874 L 118.007 66.874 L 118.007 38.633 C 120.39 35.754 123.381 34.171 126.45 34.171 C 130.621 34.171 133.114 36.804 133.114 41.211 L 133.114 66.876 L 146.585 66.876 L 146.585 38.12 C 146.586 28.052 140.081 21.55 130.01 21.55 Z " fill="rgb(255,255,255)"/><path d=" M 309.31 21.55 C 303.622 21.55 298.684 24.039 294.972 28.765 C 292.309 24.103 287.426 21.55 281.104 21.55 C 276.659 21.55 272.295 23.374 269.093 26.508 C 269.099 26.324 269.094 26.143 269.089 25.968 C 268.65 22.777 265.934 22.674 265.564 22.674 L 265.56 22.674 L 255.906 22.674 L 255.906 66.874 L 269.374 66.874 L 269.374 38.633 C 271.758 35.754 274.685 34.171 277.634 34.171 C 281.691 34.171 284.115 36.736 284.115 41.025 L 284.115 66.876 L 297.581 66.876 L 297.581 38.633 C 299.963 35.754 302.89 34.171 305.845 34.171 C 307.363 34.171 312.323 34.665 312.323 41.025 L 312.323 66.876 L 325.795 66.876 L 325.795 38.12 C 325.792 28.052 319.322 21.55 309.31 21.55 Z " fill="rgb(255,255,255)"/><path d=" M 338.981 0 C 334.336 0 330.562 3.818 330.562 8.513 C 330.562 13.235 334.258 16.933 338.981 16.933 C 343.755 16.933 347.495 13.235 347.495 8.513 C 347.495 3.818 343.675 0 338.981 0 Z " fill="rgb(255,255,255)"/><path d=" M 346.297 26.149 C 346.165 23.398 343.949 22.673 342.789 22.675 L 332.825 22.675 L 332.825 66.873 L 346.298 66.873 L 346.297 66.229 C 346.274 52.801 346.248 27.156 346.297 26.149 Z " fill="rgb(255,255,255)"/><path d=" M 374.372 55.908 C 368.233 55.908 363.946 51.33 363.946 44.777 C 363.946 38.168 368.233 33.549 374.372 33.549 C 380.517 33.549 384.805 38.168 384.805 44.777 C 384.805 51.227 380.416 55.908 374.372 55.908 Z  M 396.98 66.231 C 396.958 52.8 396.931 27.156 396.98 26.15 C 396.847 23.399 394.632 22.673 393.471 22.674 L 384.184 22.705 L 384.184 26.106 C 381.144 23.079 377.137 21.55 372.248 21.55 C 360.013 21.55 350.79 31.535 350.79 44.778 C 350.79 58.016 360.013 67.999 372.248 67.999 C 377.178 67.999 381.273 66.38 384.453 63.184 L 384.474 63.748 L 384.509 63.748 C 384.82 66.19 386.816 66.866 387.885 66.874 L 396.982 66.874 L 396.98 66.231 Z " fill="rgb(255,255,255)"/><path d=" M 225.804 55.908 C 219.665 55.908 215.374 51.331 215.374 44.776 C 215.374 38.167 219.665 33.55 225.804 33.55 C 231.945 33.55 236.232 38.166 236.232 44.776 C 236.232 51.228 231.846 55.908 225.804 55.908 Z  M 248.41 26.15 C 248.283 23.401 246.062 22.673 244.9 22.675 L 235.616 22.703 L 235.616 26.106 C 232.574 23.079 228.568 21.55 223.68 21.55 C 211.446 21.55 202.22 31.535 202.22 44.776 C 202.22 58.018 211.446 67.998 223.68 67.998 C 228.61 67.998 232.704 66.381 235.877 63.184 L 235.903 63.749 L 235.94 63.749 C 236.254 66.189 238.244 66.865 239.31 66.873 L 248.41 66.873 L 248.409 66.23 C 248.389 52.801 248.361 27.155 248.41 26.15 Z " fill="rgb(255,255,255)"/><path d=" M 174.997 55.844 C 169.114 55.844 164.674 51.043 164.674 44.681 C 164.674 38.268 169.016 33.613 174.997 33.613 C 180.977 33.613 185.316 38.269 185.316 44.681 C 185.317 51.043 180.881 55.844 174.997 55.844 Z  M 198.506 9.755 L 198.505 9.558 L 198.493 9.553 C 198.266 7.179 196.416 6.421 195.156 6.323 L 185.038 6.276 L 185.038 20.602 C 185.038 22.521 185.104 24.579 185.16 26.22 C 185.164 26.39 185.172 26.554 185.176 26.713 C 182.744 23.942 178.39 21.457 172.187 21.457 C 159.814 21.457 150.835 31.223 150.835 44.68 C 150.835 57.92 160.057 67.91 172.284 67.91 C 177.984 67.91 182.515 65.455 185.038 62.634 L 185.038 63.237 C 185.038 65.348 186.289 66.639 188.486 66.786 C 189.009 66.811 197.867 66.783 197.868 66.786 L 198.51 66.783 L 198.51 9.959 L 198.511 9.825 L 198.51 9.789 C 198.508 9.779 198.506 9.764 198.506 9.755 Z " fill="rgb(255,255,255)"/><path d=" M 42.482 0 C 37.84 0 34.062 3.818 34.062 8.513 C 34.062 13.235 37.762 16.933 42.482 16.933 C 47.256 16.933 50.996 13.235 50.996 8.513 C 50.996 3.818 47.176 0 42.482 0 Z " fill="rgb(255,255,255)"/><path d=" M 49.798 26.149 C 49.667 23.398 47.45 22.673 46.289 22.675 L 36.326 22.675 L 36.326 66.873 L 49.801 66.873 L 49.799 66.229 C 49.776 52.801 49.748 27.156 49.798 26.149 Z " fill="rgb(255,255,255)"/></g></g></g></g></svg>